HIERARCHY
ROOT RootJoint
{
    OFFSET   0.000000   0.000000   0.000000
    CHANNELS 6 Xposition Yposition Zposition Xrotation Yrotation Zrotation
    JOINT pelvis_lowerback
    {
        OFFSET   0.000000   0.093605   0.000000
        CHANNELS 3 Xrotation Yrotation Zrotation
        JOINT lowerback_torso
        {
            OFFSET   0.000000   0.100000   0.000000
            CHANNELS 3 Xrotation Yrotation Zrotation
            JOINT torso_head
            {
                OFFSET   0.000000   0.282350   0.000000
                CHANNELS 3 Xrotation Yrotation Zrotation
                End Site
                {
                    OFFSET   0.000000   0.192650   0.000000
                }
            }
            JOINT rTorso_Clavicle
            {
                OFFSET  -0.001000   0.157500   0.000000
                CHANNELS 3 Xrotation Yrotation Zrotation
                JOINT rShoulder
                {
                    OFFSET  -0.117647   0.000000   0.000000
                    CHANNELS 3 Xrotation Yrotation Zrotation
                    JOINT rElbow
                    {
                        OFFSET  -0.245000   0.000000   0.000000
                        CHANNELS 3 Xrotation Yrotation Zrotation
                        JOINT rWrist
                        {
                            OFFSET  -0.240000   0.000000   0.000000
                            CHANNELS 3 Xrotation Yrotation Zrotation
                            End Site
                            {
                                OFFSET  -0.116353  -0.002500   0.000000
                            }
                        }
                    }
                }
            }
            JOINT lTorso_Clavicle
            {
                OFFSET   0.001000   0.157500   0.000000
                CHANNELS 3 Xrotation Yrotation Zrotation
                JOINT lShoulder
                {
                    OFFSET   0.117647   0.000000   0.000000
                    CHANNELS 3 Xrotation Yrotation Zrotation
                    JOINT lElbow
                    {
                        OFFSET   0.245000   0.000000   0.000000
                        CHANNELS 3 Xrotation Yrotation Zrotation
                        JOINT lWrist
                        {
                            OFFSET   0.240000   0.000000   0.000000
                            CHANNELS 3 Xrotation Yrotation Zrotation
                            End Site
                            {
                                OFFSET   0.116353  -0.002500   0.000000
                            }
                        }
                    }
                }
            }
        }
    }
    JOINT rHip
    {
        OFFSET  -0.100000  -0.051395   0.000000
        CHANNELS 3 Xrotation Yrotation Zrotation
        JOINT rKnee
        {
            OFFSET   0.000000  -0.410000   0.000000
            CHANNELS 3 Xrotation Yrotation Zrotation
            JOINT rAnkle
            {
                OFFSET   0.000000  -0.390000   0.000000
                CHANNELS 3 Xrotation Yrotation Zrotation
                JOINT rToeJoint
                {
                    OFFSET   0.000000  -0.050000   0.130000
                    CHANNELS 3 Xrotation Yrotation Zrotation
                    End Site
                    {
                        OFFSET  -0.010000   0.002000   0.060000
                    }
                }
            }
        }
    }
    JOINT lHip
    {
        OFFSET   0.100000  -0.051395   0.000000
        CHANNELS 3 Xrotation Yrotation Zrotation
        JOINT lKnee
        {
            OFFSET   0.000000  -0.410000   0.000000
            CHANNELS 3 Xrotation Yrotation Zrotation
            JOINT lAnkle
            {
                OFFSET   0.000000  -0.390000   0.000000
                CHANNELS 3 Xrotation Yrotation Zrotation
                JOINT lToeJoint
                {
                    OFFSET   0.000000  -0.050000   0.130000
                    CHANNELS 3 Xrotation Yrotation Zrotation
                    End Site
                    {
                        OFFSET   0.010000   0.002000   0.060000
                    }
                }
            }
        }
    }
}
MOTION
Frames: 5
Frame Time:   0.008333
 -2.331576   0.992059   5.139569   3.953922  -3.509011   6.162504  -1.270166   1.931306  -7.495031  -1.047799  -1.614859   2.622536  -0.449253  -1.074206   6.938443   3.018091   0.420602  20.800032  -0.084105   7.020648  31.343624   0.000003  27.083093   0.000149  13.304535   0.982361  -2.744173   7.267134  -0.069939 -16.460120   6.542244  -5.775772 -37.782748   0.000361 -26.678994   0.002183   9.845344  -4.179984  -2.138898 -10.111705   0.588729  -7.003415  53.211943   0.000752  -0.012403   5.583241  -7.760559   4.396064 -13.823320  -0.002172  -0.035908  -9.122619  -2.414433  -8.928822   1.936395  -0.001137  -0.001415  51.789228   6.844762   0.969590 -45.029097   0.000220   0.004118
 -2.331089   0.994050   5.146020   3.607990  -3.362261   5.801926  -0.988395   1.615907  -7.293059  -1.187946  -1.713256   2.755880  -0.373427  -0.933344   6.931209   3.172080   0.168207  20.712182   0.089248   6.955249  31.277118  -0.000069  27.112439   0.000195  13.277443   1.058912  -2.874515   7.214371  -0.294517 -16.450478   6.342151  -5.947025 -37.869916   0.000354 -26.811420   0.001977   9.841118  -4.181441  -2.152275 -11.054494   0.495935  -6.749581  54.133479   0.000646  -0.010338   3.557561  -8.476722   4.182257 -13.308087  -0.001984  -0.031388  -8.308411  -2.459985  -8.593303   1.658590  -0.000905  -0.001757  52.388010   6.417411   0.900934 -45.023278   0.000187   0.003291
 -2.330593   0.995887   5.152186   3.288749  -3.165905   5.451445  -0.679515   1.301932  -7.084516  -1.307319  -1.826126   2.882071  -0.300242  -0.791666   6.922663   3.323446  -0.074004  20.618507   0.256376   6.886861  31.210216  -0.000106  27.137447   0.000203  13.254358   1.131318  -3.001589   7.122819  -0.544576 -16.446998   6.125331  -6.143557 -37.959436   0.000375 -26.953665   0.001851   9.835095  -4.253845  -2.150821 -12.034440   0.409957  -6.468411  54.915654   0.000706  -0.008116   1.651008  -9.137595   3.956447 -12.873943  -0.001889  -0.026902  -7.535384  -2.506123  -8.268021   1.365396  -0.000716  -0.002152  52.989956   5.991531   0.837882 -45.018623   0.000159   0.002632
 -2.330082   0.997547   5.158181   2.978697  -2.938205   5.129071  -0.357278   0.988687  -6.888539  -1.396849  -1.951368   2.997809  -0.225742  -0.657730   6.915034   3.468569  -0.303893  20.528743   0.415059   6.818584  31.146426  -0.000121  27.158624   0.000194  13.232742   1.189877  -3.118337   7.015353  -0.800170 -16.446790   5.907501  -6.346093 -38.045305   0.000409 -27.096066   0.001772   9.827671  -4.377553  -2.140826 -13.019048   0.330314  -6.190870  55.607224   0.000837  -0.006048  -0.136227  -9.746965   3.724225 -12.480163  -0.001836  -0.022839  -6.787500  -2.548836  -7.974127   1.086362  -0.000573  -0.002479  53.555191   5.588092   0.781378 -45.014898   0.000135   0.002106
 -2.329555   0.999040   5.164073   2.675452  -2.689112   4.839274  -0.032875   0.679926  -6.708100  -1.461590  -2.083819   3.102115  -0.151377  -0.532168   6.907575   3.609193  -0.523793  20.446453   0.566397   6.749630  31.087390  -0.000122  27.175952   0.000176  13.211914   1.233760  -3.224738   6.903618  -1.051001 -16.450164   5.696054  -6.545193 -38.127608   0.000442 -27.233813   0.001705   9.819603  -4.526152  -2.128464 -13.991848   0.256684  -5.926290  56.226942   0.000985  -0.004227  -1.810737 -10.308754   3.489179 -12.120690  -0.001807  -0.019245  -6.060682  -2.588801  -7.714426   0.827957  -0.000464  -0.002708  54.079219   5.205525   0.729908 -45.011919   0.000114   0.001685
